<?xml version="1.0" encoding="UTF-8"?>
<svg width="27px" height="18px" viewBox="0 0 27 18" version="1.1" xmlns="http://www.w3.org/2000/svg" xmlns:xlink="http://www.w3.org/1999/xlink">
    <!-- Generator: Sketch 46.2 (44496) - http://www.bohemiancoding.com/sketch -->
    <title>Shape</title>
    <desc>Created with Sketch.</desc>
    <defs></defs>
    <g id="Оплата" stroke="none" stroke-width="1" fill="none" fill-rule="evenodd">
        <g id="Desktop" transform="translate(-776.000000, -521.000000)" fill-rule="nonzero" fill="#FFFFFF">
            <g id="iconmonstr-credit-card-6" transform="translate(776.000000, 521.000000)">
                <path d="M24.75,0 L2.25,0 C1.008,0 0,1.008 0,2.25 L0,15.75 C0,16.992 1.008,18 2.25,18 L24.75,18 C25.992,18 27,16.992 27,15.75 L27,2.25 C27,1.008 25.992,0 24.75,0 Z M24.75,15.1875 C24.75,15.498 24.498,15.75 24.1875,15.75 L2.8125,15.75 C2.502,15.75 2.25,15.498 2.25,15.1875 L2.25,7.875 L24.75,7.875 L24.75,15.1875 Z M24.75,4.5 L2.25,4.5 L2.25,2.8125 C2.25,2.502 2.502,2.25 2.8125,2.25 L24.1875,2.25 C24.498,2.25 24.75,2.502 24.75,2.8125 L24.75,4.5 Z M14.625,11.25 L4.5,11.25 L4.5,10.125 L14.625,10.125 L14.625,11.25 Z M11.25,13.5 L4.5,13.5 L4.5,12.375 L11.25,12.375 L11.25,13.5 Z M22.5,11.25 L19.125,11.25 L19.125,10.125 L22.5,10.125 L22.5,11.25 Z" id="Shape"></path>
            </g>
        </g>
    </g>
</svg>